<?xml version="1.0" standalone="no"?>
<!DOCTYPE svg PUBLIC "-//W3C//DTD SVG 20010904//EN"
 "http://www.w3.org/TR/2001/REC-SVG-20010904/DTD/svg10.dtd">
<svg version="1.0" xmlns="http://www.w3.org/2000/svg"
 width="700.000000pt" height="700.000000pt" viewBox="0 0 700.000000 700.000000"
 preserveAspectRatio="xMidYMid meet">
<metadata>
Created by potrace 1.14, written by Peter Selinger 2001-2017
</metadata>
<g transform="translate(0.000000,700.000000) scale(0.100000,-0.100000)"
fill="#000000" stroke="none">
<path d="M2355 6072 c-20 -4 -405 -107 -740 -197 -188 -50 -222 -69 -263 -146
-21 -39 -23 -53 -19 -120 l5 -77 -52 -33 c-113 -71 -268 -254 -393 -461 -128
-212 -301 -602 -390 -878 -74 -232 -150 -501 -178 -630 -2 -8 -8 -35 -14 -60
-5 -25 -12 -56 -15 -70 -2 -14 -9 -46 -15 -71 -12 -52 -57 -318 -66 -389 -3
-25 -7 -61 -10 -80 -11 -85 -14 -108 -31 -300 -8 -90 -8 -429 0 -520 23 -251
66 -444 135 -603 95 -219 322 -369 560 -369 146 0 271 31 416 105 180 91 336
231 595 532 52 61 99 115 105 121 5 6 39 44 75 85 343 390 649 584 1045 664
138 28 239 37 415 37 137 0 227 -8 385 -38 127 -23 306 -87 425 -152 47 -26
89 -49 95 -51 5 -2 14 -8 20 -12 5 -5 56 -43 112 -84 132 -98 298 -263 498
-495 274 -319 388 -432 539 -534 173 -118 347 -177 526 -178 90 0 123 6 214
37 155 54 295 186 361 341 36 84 83 250 100 349 3 17 7 39 9 50 2 11 7 49 10
85 4 36 9 87 12 114 7 70 7 394 0 501 -8 120 -22 265 -31 315 -2 14 -7 52 -10
85 -4 32 -8 62 -10 65 -1 3 -6 28 -9 55 -6 46 -39 228 -51 282 -8 36 -14 66
-21 98 -37 183 -154 595 -231 810 -212 596 -474 1042 -717 1220 l-63 47 12 41
c37 123 -32 244 -159 281 -31 9 -98 27 -149 41 -50 13 -177 47 -282 75 -480
129 -463 126 -529 103 -61 -21 -102 -58 -131 -116 l-26 -54 -53 8 c-29 4 -91
10 -137 14 -46 4 -95 9 -109 10 -209 27 -973 26 -1245 0 -22 -2 -69 -7 -105
-10 -36 -3 -88 -8 -116 -11 -51 -5 -51 -5 -57 25 -8 39 -70 108 -114 126 -37
16 -98 24 -128 17z m1655 -576 c25 -3 74 -8 110 -11 137 -11 317 -32 365 -41
11 -2 38 -6 60 -9 74 -9 299 -56 395 -81 220 -58 412 -136 521 -211 153 -106
352 -426 503 -813 32 -80 63 -158 70 -175 10 -24 102 -307 146 -450 10 -33 66
-255 74 -295 3 -14 15 -68 26 -120 39 -176 79 -439 95 -615 3 -38 8 -95 12
-125 15 -140 10 -428 -12 -610 -17 -150 -79 -341 -124 -383 -117 -111 -344
-38 -571 184 -56 55 -228 246 -323 360 -272 325 -543 559 -822 709 -146 78
-398 168 -554 197 -285 53 -688 54 -936 3 -27 -6 -59 -12 -70 -14 -135 -26
-343 -101 -492 -178 -290 -150 -575 -398 -883 -768 -29 -36 -59 -70 -64 -75
-6 -6 -40 -44 -76 -85 -145 -168 -283 -285 -395 -336 -128 -59 -221 -64 -289
-17 -42 30 -84 92 -85 128 -1 12 -5 25 -10 30 -13 15 -41 137 -57 245 -23 164
-23 550 0 735 2 17 7 62 11 100 3 39 8 79 10 90 3 11 7 38 10 60 7 50 24 153
29 181 2 12 7 39 10 60 4 22 22 109 41 195 161 719 456 1425 711 1699 93 99
233 175 453 246 176 57 463 121 621 139 25 3 77 10 115 15 39 5 99 12 135 16
36 3 83 7 105 9 22 2 90 7 150 11 61 3 112 8 114 10 5 5 820 -4 871 -10z"/>
<path d="M2003 4582 l-33 -3 0 -215 c0 -164 -3 -214 -12 -215 -7 -1 -101 -3
-208 -4 -107 -1 -201 -3 -207 -4 -10 -1 -13 -52 -13 -218 l0 -218 220 1 220 1
0 -219 0 -218 218 0 219 0 -1 218 0 217 213 0 c145 1 214 4 219 12 9 14 8 405
0 418 -4 7 -86 10 -217 10 -180 0 -210 2 -213 15 -2 8 -3 106 -2 218 0 198 0
202 -20 203 -109 2 -358 3 -383 1z"/>
<path d="M4722 4561 c-183 -86 -163 -348 31 -406 81 -24 162 0 221 65 88 97
67 253 -44 326 -55 36 -148 43 -208 15z"/>
<path d="M4340 4140 c-71 -14 -134 -61 -164 -125 -65 -137 43 -305 196 -305
200 1 295 237 151 374 -51 48 -118 69 -183 56z"/>
<path d="M5180 4130 c-91 -31 -150 -117 -150 -218 0 -49 50 -134 99 -166 80
-53 201 -45 265 17 44 43 66 87 73 146 11 98 -71 211 -166 227 -20 3 -43 7
-51 9 -8 3 -40 -4 -70 -15z"/>
<path d="M4724 3686 c-61 -29 -90 -60 -113 -122 -42 -112 10 -232 121 -279
141 -58 305 58 297 212 -8 155 -167 253 -305 189z"/>
</g>
</svg>
